<svg width="40" height="36" viewBox="0 0 40 36" fill="none" xmlns="http://www.w3.org/2000/svg">
<path d="M36 0H24.997C24.997 0.011 25 0.0210001 25 0.0320001C25 2.793 22.761 5.032 20 5.032C17.239 5.032 15 2.793 15 0.0320001C15 0.0210001 15.003 0.011 15.003 0H4C1.8 0 0 1.8 0 4V12C0 14.2 1.8 16 4 16H5.978V32C5.978 34.2 7.778 36 9.978 36H30C32.2 36 34 34.2 34 32V16H36C38.2 16 40 14.2 40 12V4C40 1.8 38.2 0 36 0ZM38 12C38 13.103 37.103 14 36 14H32V16V32C32 33.103 31.103 34 30 34H9.978C8.875 34 7.978 33.103 7.978 32V16V14H4C2.897 14 2 13.103 2 12V4C2 2.897 2.897 2 4 2H13.282C14.134 4.905 16.824 7.032 20 7.032C23.177 7.032 25.866 4.905 26.718 2H36C37.103 2 38 2.897 38 4V12Z" fill="black"/>
</svg>
