<svg width="24" height="40" viewBox="0 0 24 40" fill="none" xmlns="http://www.w3.org/2000/svg">
<path d="M15 6H9V8H15V6Z" fill="black"/>
<path d="M12 34C13.1046 34 14 33.1046 14 32C14 30.8954 13.1046 30 12 30C10.8954 30 10 30.8954 10 32C10 33.1046 10.8954 34 12 34Z" fill="black"/>
<path d="M20 40C22.2 40 24 38.2 24 36V4C24 1.8 22.2 0 20 0H4C1.8 0 0 1.8 0 4V36C0 38.2 1.8 40 4 40H20ZM2 36V4C2 2.897 2.897 2 4 2H20C21.103 2 22 2.897 22 4V36C22 37.103 21.103 38 20 38H4C2.897 38 2 37.103 2 36Z" fill="black"/>
</svg>
