<svg width="30" height="38" viewBox="0 0 30 38" fill="none" xmlns="http://www.w3.org/2000/svg">
<path d="M21 0C19.692 0 18.589 0.846 17.753 2H12.246C11.411 0.846 10.308 0 9 0C7.692 0 6.589 0.846 5.753 2H0V38H30V2H24.247C23.411 0.846 22.308 0 21 0ZM2 14H28V36H2V14ZM28 12H2V4H28V12Z" fill="black"/>
<path d="M8 20V30H22V20H8ZM20 28H10V22H20V28Z" fill="black"/>
<path d="M7 10C8.10457 10 9 9.10457 9 8C9 6.89543 8.10457 6 7 6C5.89543 6 5 6.89543 5 8C5 9.10457 5.89543 10 7 10Z" fill="black"/>
<path d="M15 10C16.1046 10 17 9.10457 17 8C17 6.89543 16.1046 6 15 6C13.8954 6 13 6.89543 13 8C13 9.10457 13.8954 10 15 10Z" fill="black"/>
<path d="M23 10C24.1046 10 25 9.10457 25 8C25 6.89543 24.1046 6 23 6C21.8954 6 21 6.89543 21 8C21 9.10457 21.8954 10 23 10Z" fill="black"/>
</svg>
