<svg width="48" height="48" viewBox="0 0 48 48" fill="none" xmlns="http://www.w3.org/2000/svg">
<g clip-path="url(#clip0_201_163)">
<path d="M36 29C35.351 29 34.725 29.096 34.128 29.262L29.042 17.704C29.9553 17.0592 30.7006 16.2046 31.2154 15.2121C31.7301 14.2196 31.9991 13.118 32 12C32 8.141 28.859 5 25 5C21.14 5 18 8.141 18 12C18 13.828 18.71 15.49 19.862 16.738L15.082 23.725C14.1243 23.2491 13.0695 23.001 12 23C8.14 23 5 26.141 5 30C5 33.859 8.14 37 12 37C15.86 37 19 33.859 19 30C18.9995 29.0321 18.7975 28.0748 18.4068 27.1892C18.0162 26.3036 17.4455 25.509 16.731 24.856L21.419 18.004C22.5002 18.6548 23.7381 18.9991 25 19C25.791 19 26.549 18.862 27.259 18.619L32.298 30.07C31.2903 30.6975 30.4589 31.571 29.8819 32.6084C29.305 33.6458 29.0015 34.813 29 36C29 39.859 32.141 43 36 43C39.859 43 43 39.859 43 36C43 32.141 39.859 29 36 29ZM17 30C17 32.757 14.757 35 12 35C9.243 35 7 32.757 7 30C7 27.243 9.243 25 12 25C14.757 25 17 27.243 17 30ZM20 12C20 9.243 22.243 7 25 7C27.757 7 30 9.243 30 12C30 14.757 27.757 17 25 17C22.243 17 20 14.757 20 12ZM36 41C33.243 41 31 38.757 31 36C31 33.243 33.243 31 36 31C38.757 31 41 33.243 41 36C41 38.757 38.757 41 36 41Z" fill="black"/>
</g>
<defs>
<clipPath id="clip0_201_163">
<rect width="48" height="48" fill="white"/>
</clipPath>
</defs>
</svg>
