<svg width="36" height="40" viewBox="0 0 36 40" fill="none" xmlns="http://www.w3.org/2000/svg">
<path d="M8 40H28C32.4 40 36 36.4 36 32V4C36 1.8 34.2 0 32 0H20C17.8 0 16 1.8 16 4V24H8C3.6 24 0 27.6 0 32C0 36.4 3.6 40 8 40ZM28 38H26.688C26.245 37.07 26 36.048 26 35C26 31.141 29.14 28 33 28C33.332 28 33.666 28.031 34 28.078V32C34 35.308 31.308 38 28 38ZM18 4C18 2.897 18.897 2 20 2H32C33.103 2 34 2.897 34 4V9H18V4ZM16 26H18V24V11H34V26.062C33.666 26.025 33.332 26 33 26C28.038 26 24 30.037 24 35C24 36.031 24.193 37.042 24.531 38H13V26H16ZM8 26H11V38H8C4.692 38 2 35.308 2 32C2 28.692 4.692 26 8 26Z" fill="black"/>
</svg>
